<?xml version="1.0" encoding="utf-8"?>
<!-- Generator: Adobe Illustrator 19.1.0, SVG Export Plug-In . SVG Version: 6.00 Build 0)  -->
<svg version="1.0" id="Laag_1" xmlns="http://www.w3.org/2000/svg" xmlns:xlink="http://www.w3.org/1999/xlink" x="0px" y="0px"
	 viewBox="0 0 1020 850" enable-background="new 0 0 1020 850" xml:space="preserve">
<path fill="none" d="M882.5,284.8c-11.5-10.4-28.3-15.2-51.2-15.2h-29.6c-11.5,0-27.7,4.1-38.4,6.1v98.6v32.1
	c11.9,3.5,28.8,6.2,46.4,7.4c6.3,0.4,12.7,0.7,19,0.7c45.6,0,70.9-25.2,72.6-67c0.1-1.5,0.2-2.9,0.2-4.5
	C901.4,315.3,895.3,296.5,882.5,284.8z"/>
<path fill="#473824" d="M763.2,374.3v-98.6c10.8-2,27-6.1,38.4-6.1h29.6c22.9,0,39.7,4.7,51.2,15.2c27.2-17,54.3-32,81.5-45.2
	c-27.3-31.4-70.1-48.1-121.2-48.1h-51.9c-33,0-94.4,12.2-120,21.6v258.8C700.3,435.1,731.4,402.8,763.2,374.3z"/>
<path fill="#473824" d="M445,656.6h37.1V539.9c-6,5.8-12,11.5-18.2,17.1c-23,20.6-47.4,39.2-72.8,55.7
	C397.2,641.7,417.9,656.6,445,656.6z"/>
<path fill="#473824" d="M60.8,194.8H23.1v294.6c0,41.6,8.5,76.1,24.9,103c35-3.1,71.8-9.5,109.3-19.8
	c-30.6-11.4-39.1-38.7-39.1-89.2V262.2C118.1,216.4,98.5,194.8,60.8,194.8z"/>
<path fill="#473824" d="M421.8,403c39.5-65.1,65-136.9,77.4-208.2h-187c-37.8,0-56,28.3-56,50.6v30.3h132.8v173.7
	c0.7-0.6,1.5-1.2,2.2-1.9C401.9,433.5,412.2,418.9,421.8,403z"/>
<path fill="#736150" d="M801.2,489.5c11.9,2.1,25.1,3.2,39.5,3.2c88.3,0,155.7-60,155.7-157.7c0-6-0.3-11.8-0.8-17.5
	c-41.5,26.1-82.4,57.2-122,94.4C848.5,435.3,824.2,461,801.2,489.5z"/>
<path fill="#736150" d="M751.1,559.8c-18.4,29.4-34.8,59.9-49.1,91.1c8,3.9,16.6,5.7,24.8,5.7h30.6h5.8V649V541.1
	C759.1,547.2,755.1,553.4,751.1,559.8z"/>
<path fill="#EAAC00" d="M391.3,447.5c32.2-27.6,62.3-58.7,89-93.2c0.6-0.8,1.2-1.6,1.8-2.3v-76.3h50.1
	c14.8-27.1,26.7-54.1,36.1-80.9h-69c-12.4,71.3-37.9,143.1-77.4,208.2C412.2,418.9,401.9,433.5,391.3,447.5z"/>
<path fill="#86B4C7" d="M901.4,343.1c0,1.5-0.1,3-0.2,4.5c16.9-10.3,34.1-19.9,51.5-28.6c13.4-6.7,26.8-12.7,40.3-18.4
	c-4.9-24.1-14.9-44.5-29.1-60.9c-27.1,13.2-54.3,28.2-81.5,45.2C895.3,296.5,901.4,315.3,901.4,343.1z"/>
<path fill="#86B4C7" d="M779,441.3c9.9-9.5,20.2-18.6,30.6-27.4c-17.5-1.2-34.5-3.9-46.4-7.4v-32.1c-31.8,28.4-63,60.7-92.4,97.5
	v98.4C702.1,523.7,738.3,480,779,441.3z"/>
<path fill="#92BCB7" d="M763.2,541.1v-63.9c10.4,5.6,23.2,9.7,38,12.3c23-28.5,47.2-54.3,72.3-77.7c39.7-37.2,80.5-68.2,122-94.4
	c-0.6-5.9-1.4-11.5-2.5-17c-13.5,5.7-27,11.8-40.3,18.4c-17.4,8.7-34.6,18.3-51.5,28.6c-1.7,41.8-27.1,67-72.6,67
	c-6.3,0-12.7-0.3-19-0.7c-10.4,8.9-20.7,17.9-30.6,27.4c-40.7,38.7-76.9,82.4-108.1,128.9v20.3c0,33.5,14.1,52,31.2,60.4
	c14.3-31.2,30.6-61.8,49.1-91.1C755.1,553.4,759.1,547.2,763.2,541.1z"/>
<path fill="#B31309" d="M114.7,647.4c41-13.8,81-32.5,120.4-57.1c6.4-4,12.7-8.3,19-12.6c-8.5,0.8-17.4,1.3-26.8,1.3h-23.6
	c-19.4,0-34.6-2.1-46.5-6.5c-37.5,10.3-74.4,16.7-109.3,19.8C63.3,617.7,85.8,636.1,114.7,647.4z"/>
<path fill="#C0140A" d="M389.1,449.4v1c0.7-1,1.5-1.9,2.2-2.8C390.6,448.2,389.8,448.8,389.1,449.4z"/>
<path fill="#B31309" d="M482.1,539.9v-27.1c-27.1,29.3-55.5,54.5-83.8,75.8c-3,2.3-6.1,4.5-9.1,6.7c0,6.3,0.8,12,1.9,17.4
	c25.4-16.6,49.8-35.2,72.8-55.7C470.1,551.4,476.1,545.7,482.1,539.9z"/>
<path fill="#DF7300" d="M114.7,647.4c22,8.6,47.6,13.2,76.9,13.2h35.7c76.2,0,96.4-26.3,96.4-66.7v-31.7
	c-13.3,5.3-38.2,12.6-69.6,15.5c-6.3,4.3-12.7,8.6-19,12.6C195.7,614.9,155.6,633.6,114.7,647.4z"/>
<path fill="#DF7300" d="M567.1,275.7c30.3,0,55.3-29.7,55.3-51.9v-29h-54.1c-9.4,26.8-21.2,53.8-36.1,80.9H567.1z"/>
<path fill="#DF7300" d="M482.1,512.8V352c-0.6,0.8-1.2,1.6-1.8,2.3c-26.7,34.5-56.9,65.6-89,93.2c-0.7,1-1.5,1.9-2.2,2.8v144.1
	c0,0.3,0.1,0.5,0.1,0.8c3-2.2,6.1-4.4,9.1-6.7C426.6,567.3,455,542.2,482.1,512.8z"/>
<g>
</g>
<g>
</g>
</svg>
